<svg width="1292" height="671" viewBox="0 0 1292 671" fill="none" xmlns="http://www.w3.org/2000/svg">
<path d="M1505.65 18.0464C1505.65 18.0464 1067.19 97.3784 921.217 23.4754C820.827 -27.3496 815.517 -0.673691 715.154 153.208C621.396 296.962 483.329 -45.8486 343.254 160.58C343.254 160.58 277.72 244.135 144.196 253.964C144.196 253.964 -49.9479 276.082 12.3101 416.164C12.3101 416.164 108.972 551.327 344.074 437.464C456.811 381.225 540.917 422.109 556.239 562.797C556.05 559.047 583.272 737.279 783.149 643.897C783.149 643.897 874.077 534.13 1087.88 611.951C1087.88 611.951 1279.57 655.366 1447.5 439.106C1615.43 222.846 1944.73 287.561 1691.61 113.898C1691.61 113.888 1658.02 74.5684 1505.65 18.0464Z" fill="url(#paint0_linear_2191_831)"/>
<defs>
<linearGradient id="paint0_linear_2191_831" x1="1784" y1="557.598" x2="1157.87" y2="-544.451" gradientUnits="userSpaceOnUse">
<stop stop-color="#FFE2F9"/>
<stop offset="0.344" stop-color="#F0FEFD"/>
<stop offset="0.613" stop-color="#F8FFFE"/>
<stop offset="1" stop-color="white"/>
</linearGradient>
</defs>
</svg>
